<svg id="Warstwa_2" data-name="Warstwa 2" xmlns="http://www.w3.org/2000/svg" viewBox="0 0 56.05 71.22"><defs><style>.cls-1,.cls-3{fill:#fff;}.cls-1,.cls-2,.cls-3,.cls-4,.cls-5{stroke:#231f20;stroke-miterlimit:10;}.cls-1{stroke-width:0.37px;}.cls-2{fill:#efeff0;}.cls-2,.cls-3,.cls-4,.cls-5{stroke-width:0.39px;}.cls-4{fill:none;}.cls-5{fill:#d1d3d4;}</style></defs><title>capricorn_1</title><path class="cls-1" d="M41,43.13c.56,9.28-.09,16.28-.88,18.77a39.76,39.76,0,0,1-1.39,3.78c-.93,2.11-1.27,2.25-1.26,2.84,0,2.33,5.61,4.9,11.09,5.07,6,.2,12-2.53,12-4.79,0-.84-.81-1.13-1.94-3.63A25.45,25.45,0,0,1,57.53,62c-.72-2.64-1.45-9.85-1.52-19.51" transform="translate(-20.23 -2.57)"/><path class="cls-2" d="M55.93,21.38c3.65-1.72,7-4.1,7.35-7.24C63.8,8.79,55.12,4.25,55.92,3c.53-.83,4.95.37,8.29,3.24,1,.88,6.29,5.4,5.28,11.91-.76,4.94-4.84,9-10.22,10.23" transform="translate(-20.23 -2.57)"/><path class="cls-2" d="M41.44,21.38c-3.65-1.72-7-4.1-7.35-7.24C33.56,8.79,42.25,4.25,41.45,3c-.53-.83-5,.37-8.29,3.24-1,.88-6.29,5.4-5.29,11.91.77,4.94,4.85,9,10.23,10.23" transform="translate(-20.23 -2.57)"/><path class="cls-3" d="M61.88,24.81c8.64,7.28,10.6,7.27,11.7,7.62.56.18,1.94-.85,2.15-.82s.65,1.7,0,2.67-2.25.64-4.48.28c-3.24-.52-3.11-1.31-5.7-1.5a13.17,13.17,0,0,0-3.33.18" transform="translate(-20.23 -2.57)"/><path class="cls-3" d="M34.62,24.81C26,32.09,24,32.08,22.92,32.43c-.56.18-1.94-.85-2.15-.82s-.65,1.7.05,2.67,2.25.64,4.48.28c3.24-.52,3.11-1.31,5.7-1.5a13.17,13.17,0,0,1,3.33.18" transform="translate(-20.23 -2.57)"/><path class="cls-3" d="M48.81,18.06a16.57,16.57,0,0,0-9.61,2.15,12,12,0,0,0-4.5,4.34c-1.81,3.32-1.55,7.05.67,12.51,5.33,13.11,6.58,19.75,10,22.63.71.59,3.35,1.07,6,.16,3.25-1.12,3.18-4.19,10-24,2.1-6.08,1.56-10-.61-12.76a11.73,11.73,0,0,0-3.07-2.61A16.78,16.78,0,0,0,48.81,18.06Z" transform="translate(-20.23 -2.57)"/><path class="cls-3" d="M34.63,35c0-1.72.19-2,1.38-2.49a5,5,0,0,1,2.93,0c2.25.93,2.46,3.94,2.93,5.76a21.92,21.92,0,0,1-.44,11.62c-.53,1.43-1.06,1.93-.92,3,.42,3.07,5.59,5.54,7.12,4.34,1-.75.56-2.94.74-2.94s-.14,2,.77,2.76c1.59,1.31,7.23-1.1,7.78-4.34.31-1.85-1.26-2.29-2.38-5.73a16.86,16.86,0,0,1,0-9.39c.53-2.36,1-4.48,2.75-5.34a5.35,5.35,0,0,1,3.28-.33,1.84,1.84,0,0,1,1.1.56,2.09,2.09,0,0,1,.25,1.85" transform="translate(-20.23 -2.57)"/><path class="cls-4" d="M56.76,35.91a2.63,2.63,0,0,0,2,.35,2.67,2.67,0,0,0,1.76-1.65" transform="translate(-20.23 -2.57)"/><path class="cls-5" d="M45.18,59.5a6.52,6.52,0,0,0,1.27,3.36A6.76,6.76,0,0,1,47.54,66c.24,1-1.26,4.75-.89,5,.58.43,3.41-1.72,4.88-6,.72-2.07,1.69-6.3,1.1-5.89a10.22,10.22,0,0,1-3.75.94A7.39,7.39,0,0,1,45.18,59.5Z" transform="translate(-20.23 -2.57)"/><path class="cls-4" d="M40,36.26a2.61,2.61,0,0,1-2,.35A2.7,2.7,0,0,1,36.17,35" transform="translate(-20.23 -2.57)"/></svg>