<svg id="Warstwa_1" data-name="Warstwa 1" xmlns="http://www.w3.org/2000/svg" viewBox="0 0 45.7 89.6"><defs><style>.cls-1{fill:#726658;}.cls-2{fill:none;stroke:#fff;stroke-miterlimit:10;stroke-width:0.56px;}.cls-3,.cls-4,.cls-5,.cls-6,.cls-7{fill:#fff;}.cls-3{opacity:0.54;}.cls-4{opacity:0.42;}.cls-6{font-size:6.62px;}.cls-6,.cls-7{font-family:MyriadPro-Regular, Myriad Pro;}.cls-7{font-size:5.46px;}.cls-8{letter-spacing:-0.01em;}</style></defs><title>card_1</title><rect class="cls-1" width="45.7" height="89.6"/><path class="cls-2" d="M30.08,10h9.4a5.2,5.2,0,0,1,5.21,5.2v71a5.2,5.2,0,0,1-5.21,5.2H10.93a5.2,5.2,0,0,1-5.21-5.2v-71A5.2,5.2,0,0,1,10.93,10h9.4" transform="translate(-2.35 -5.2)"/><path class="cls-3" d="M44.68,86.26v-9.2a11.86,11.86,0,0,0-8.4-11.61C29.44,63.3,23.71,71.91,17,70.32c-3.71-.88-8.19-5-11.31-19.6V86.23a5.2,5.2,0,0,0,5.21,5.2H39.48A5.19,5.19,0,0,0,44.68,86.26Z" transform="translate(-2.35 -5.2)"/><path class="cls-4" d="M25.41,32.81c1.28-3.25,11.15-1.49,12.63-1.29.32,1.22,1.43,10.46-1.65,12.27" transform="translate(-2.35 -5.2)"/><path class="cls-4" d="M25.2,32.81c-1.28-3.25-11.15-1.49-12.63-1.29-.32,1.22-1.43,10.46,1.66,12.27" transform="translate(-2.35 -5.2)"/><path class="cls-4" d="M25.31,54.77c1.28,3.24,11.15,1.49,12.63,1.29.32-1.22,1.43-10.46-1.66-12.27" transform="translate(-2.35 -5.2)"/><path class="cls-4" d="M25.1,54.77C23.82,58,14,56.26,12.47,56.06,12.15,54.84,11,45.6,14.12,43.79" transform="translate(-2.35 -5.2)"/><path class="cls-4" d="M17.39,36.71c-1.44-3.18,6.69-9,7.87-10,1.09.62,8.5,6.26,7.65,9.73" transform="translate(-2.35 -5.2)"/><path class="cls-4" d="M17.59,51.14c-1.43,3.18,6.69,9,7.87,10,1.1-.62,8.51-6.26,7.66-9.73" transform="translate(-2.35 -5.2)"/><path class="cls-4" d="M17.88,51.6c-3.18,1.44-9-6.69-10-7.86.61-1.1,6.25-8.51,9.72-7.66" transform="translate(-2.35 -5.2)"/><path class="cls-4" d="M32.32,51.4c3.18,1.43,9-6.69,10-7.87-.61-1.09-6.25-8.5-9.72-7.66" transform="translate(-2.35 -5.2)"/><circle class="cls-5" cx="23.06" cy="38.59" r="10.98"/><text class="cls-6" transform="translate(18.61 7.26)">XIX</text><text class="cls-7" transform="translate(15.07 12.72)">Słoń<tspan class="cls-8" x="10.03" y="0">c</tspan><tspan x="12.44" y="0">e</tspan></text></svg>