<svg id="Warstwa_1" data-name="Warstwa 1" xmlns="http://www.w3.org/2000/svg" viewBox="0 0 45.7 89.6"><defs><style>.cls-1{fill:#726658;}.cls-2{fill:none;stroke:#fff;stroke-miterlimit:10;stroke-width:0.56px;}.cls-10,.cls-3,.cls-5,.cls-6,.cls-7{fill:#fff;}.cls-3{opacity:0.54;}.cls-3,.cls-4,.cls-5,.cls-6{isolation:isolate;}.cls-5,.cls-6{font-size:6.62px;}.cls-5,.cls-6,.cls-7{font-family:MyriadPro-Regular, Myriad Pro;}.cls-5{letter-spacing:0.01em;}.cls-7{font-size:5.46px;}.cls-8{letter-spacing:-0.01em;}.cls-9{letter-spacing:0em;}</style></defs><title>card_3</title><rect class="cls-1" width="45.7" height="89.6"/><path class="cls-2" d="M30,4.8h7.12A5.2,5.2,0,0,1,42.34,10h0V81a5.2,5.2,0,0,1-5.2,5.2H8.58A5.2,5.2,0,0,1,3.37,81h0V10a5.2,5.2,0,0,1,5.2-5.2h0l7.34,0"/><path class="cls-3" d="M3.37,81.06v-9.2a11.85,11.85,0,0,1,8.4-11.61C18.65,58.1,24.35,66.71,31,65.12c3.71-.88,8.18-5,11.3-19.6V81a5.2,5.2,0,0,1-5.2,5.2H8.58A5.2,5.2,0,0,1,3.37,81.06Z"/><g class="cls-4"><text class="cls-5" transform="translate(17.61 7.26)">X</text><text class="cls-6" transform="translate(21.45 7.26)">VII</text></g><text class="cls-7" transform="translate(14.16 12.72)">Gwia<tspan class="cls-8" x="11.44" y="0">z</tspan><tspan class="cls-9" x="13.74" y="0">da</tspan></text><path class="cls-10" d="M23.86,23l4.23,8.56a.51.51,0,0,0,.41.3L38,33.23a.54.54,0,0,1,.3.92l-6.84,6.67a.53.53,0,0,0-.16.48l1.62,9.41a.54.54,0,0,1-.79.57l-8.45-4.44a.52.52,0,0,0-.51,0l-8.45,4.44a.54.54,0,0,1-.79-.57L15.5,41.3a.53.53,0,0,0-.16-.48L8.51,34.15a.53.53,0,0,1,.3-.92l9.44-1.38a.51.51,0,0,0,.41-.3L22.89,23A.54.54,0,0,1,23.86,23Z"/></svg>