<svg id="Warstwa_2" data-name="Warstwa 2" xmlns="http://www.w3.org/2000/svg" viewBox="0 0 45.7 89.6"><defs><style>.cls-1{fill:#726658;}.cls-2{fill:none;stroke:#fff;stroke-miterlimit:10;stroke-width:0.56px;}.cls-3,.cls-4,.cls-6,.cls-9{fill:#fff;}.cls-3{opacity:0.54;}.cls-4{font-size:6.62px;}.cls-4,.cls-6{font-family:MyriadPro-Regular, Myriad Pro;}.cls-5{letter-spacing:0.01em;}.cls-6{font-size:5.46px;}.cls-7{letter-spacing:0.02em;}.cls-8{letter-spacing:-0.01em;}</style></defs><title>card_2</title><rect class="cls-1" width="45.7" height="89.6"/><path class="cls-2" d="M32.36,10h7.12a5.2,5.2,0,0,1,5.21,5.2v71a5.2,5.2,0,0,1-5.21,5.2H10.93a5.2,5.2,0,0,1-5.21-5.2v-71A5.2,5.2,0,0,1,10.93,10l7.34.05" transform="translate(-2.35 -5.2)"/><path class="cls-3" d="M5.72,86.26v-9.2a11.85,11.85,0,0,1,8.4-11.61C21,63.3,26.7,71.91,33.38,70.32c3.71-.88,8.18-5,11.3-19.6V86.23a5.2,5.2,0,0,1-5.2,5.2H10.93A5.2,5.2,0,0,1,5.72,86.26Z" transform="translate(-2.35 -5.2)"/><text class="cls-4" transform="translate(16.93 7.26)"><tspan class="cls-5">X</tspan><tspan x="3.84" y="0">VIII</tspan></text><text class="cls-6" transform="translate(15.07 12.72)">Księ<tspan class="cls-7" x="9.13" y="0">ż</tspan><tspan class="cls-8" x="11.59" y="0">y</tspan><tspan x="14.11" y="0">c</tspan></text><path class="cls-9" d="M25.41,32.81a11.35,11.35,0,0,0-2.56.31,9,9,0,1,1-6.61,16.69,11,11,0,1,0,9.17-17Z" transform="translate(-2.35 -5.2)"/></svg>