<svg id="Warstwa_1" data-name="Warstwa 1" xmlns="http://www.w3.org/2000/svg" viewBox="0 0 88.39 39.34"><defs><style>.cls-1{fill:#fff;}.cls-2{fill:none;stroke:#231f20;stroke-miterlimit:10;}</style></defs><title>img_1</title><path class="cls-1" d="M92.5,59a93.29,93.29,0,0,1-10.16-7.8c-2.26-2-2.32-2.7-3.28-2.89-4.3-.84-22.47-8.65-25.29-10-5.69-2.82-9.05-5-10.71-5.29-.71-.13-2.78.43-5.78,1.32l.23-.09A54.82,54.82,0,0,1,32,32.13c-1.62-.7-3-1.4-3.59-.86-.38.36-.23,1.1-.19,1.29.21,1,1.05,1.55,2.35,2.4a16.27,16.27,0,0,0,1.43.82c-1,.21-2.14.35-3.24.47l1.47-.73A11.91,11.91,0,0,0,28,35.07c-3.65-.36-5.13,1.25-10,2.81-4.64,1.48-7.3,1.3-8.05,3.2a2.36,2.36,0,0,0,0,1.85,2.15,2.15,0,0,0,1.22,1c-2.58,1.19-6.41,4.47-6.24,5,.38,1.17,5.38,2.57,9.31-.54a13.34,13.34,0,0,1,2.94-1.51,23.19,23.19,0,0,1,3.77-1.1l.82-.13c-1,1.88-1.65,5-3.48,10.35-.32.92,1.4,4.07,1.92,6.38.11.47.75.87.91,1.42a4.44,4.44,0,0,0,.62.39c3,1.6,5.94-1.51,11.67-2.65.83-.16,3.84-.08,9.83.11,9.27.28,9.51.48,11.62.21,7.08-.89,6.92-3.37,10.63-2.72,4.5.78,10,5,12.69,10.07M25,57c-.17.1-.71.4-1.36.84-.11-1.41-.38-1.87-.05-2.73s.59-.7,1.58-1.9c1.46-1.75,1.05-2.49,2.09-3s1.79-.33,4.14-1.07a14.42,14.42,0,0,0,4.72-2.31c.59-.39,2.9.55,4.62.19.6-.13.31,1.11.15,2.34-.3,2.46-1,3.11-1,3.61a1,1,0,0,0,.17.48c-1,.19-2.12.29-3.35.44C33.13,54.32,28.86,54.84,25,57Z" transform="translate(-4.41 -30.03)"/><path class="cls-2" d="M37.59,33.64A54.24,54.24,0,0,1,32,31.58c-1.62-.7-3-1.4-3.59-.86-.38.36-.23,1.1-.19,1.29.21,1,1.05,1.55,2.35,2.4.47.3,1.08.29,2,.7" transform="translate(-4.41 -30.03)"/><path class="cls-2" d="M31.5,35.11A32.4,32.4,0,0,0,28,34.52c-3.65-.36-5.12,1.25-10,2.81-4.65,1.48-7.31,1.3-8,3.2a2.31,2.31,0,0,0,0,1.85c.42.84,1.58.65,1.94.91" transform="translate(-4.41 -30.03)"/><path class="cls-2" d="M92.5,59c-4.9-3.83-8.06-6.55-10.09-8.35-2.26-2-2.32-2.7-3.28-2.89-4.29-.84-22.47-8.65-25.29-10-5.69-2.82-9.05-5-10.71-5.29-1-.18-4.6,1-9.71,2.49-3.16.93-7.71.94-10.08,1.34s-4.76,4.14-11.85,7c-2.57,1-6.75,4.59-6.57,5.13.38,1.17,5.38,2.57,9.31-.54a13.24,13.24,0,0,1,2.95-1.51A37.62,37.62,0,0,1,21.81,45" transform="translate(-4.41 -30.03)"/><path class="cls-2" d="M20.19,61.05c-.51-2.31-2.23-4.7-1.91-5.62,2.15-6.29,2.72-9.5,4-11.23.66-.86,14.47-7.42,18.58-9.85,1.43-.84,3,.59,3.87.93" transform="translate(-4.41 -30.03)"/><path class="cls-2" d="M39.91,52.42c0-.5.72-1.15,1-3.61.15-1.23.44-2.47-.16-2.34-1.72.36-4-.58-4.62-.19a14.42,14.42,0,0,1-4.72,2.31c-2.35.74-3.13.55-4.14,1.07s-.63,1.28-2.08,3c-1,1.2-1.3,1.18-1.58,1.9-.39,1,0,.92.05,2.87" transform="translate(-4.41 -30.03)"/><path class="cls-2" d="M78.38,69c-6.91-7.52-11-10.05-12.9-10.46-3.4-.73-3.54,2.36-9.79,3.14-2.12.27-3.19-.35-12.46-.63-6-.19-9-.27-9.83-.11-5.73,1.14-8.66,4.25-11.67,2.65a2.87,2.87,0,0,1-1.56-1.74c-.48-2.38,4.29-5.07,4.88-5.4,3.88-2.19,8.15-2.71,11.67-3.14,2.88-.35,5.16-.39,6.94-2.18a6.81,6.81,0,0,0,1.61-2.7" transform="translate(-4.41 -30.03)"/></svg>