<svg id="Warstwa_1" data-name="Warstwa 1" xmlns="http://www.w3.org/2000/svg" viewBox="0 0 28.07 97.48"><defs><style>.cls-1{fill:none;}.cls-1,.cls-2{stroke:#231f20;stroke-miterlimit:10;stroke-width:1.69px;}.cls-2{fill:#1b75bc;}</style></defs><title>pendulum</title><path class="cls-1" d="M46,0c-2.72,6.72-5.51,24.49-1.33,31.63s9.46,12,11.38,18.1c4.55,14.47,4.7,33.38-4.55,38.19-1.8.93-5.09,1.93-10.65.27" transform="translate(-31.9 0.32)"/><path class="cls-2" d="M41.31,82c-.36-.07-4.75-.9-7.08,1.64C31,87.18,33.48,95.22,37.5,96.21c3.07.76,6.17-2.82,6.54-3.27.17-.2,3.88-4.73,1.91-8.18C44.79,82.74,42.35,82.24,41.31,82Z" transform="translate(-31.9 0.32)"/></svg>