<svg id="Warstwa_1" data-name="Warstwa 1" xmlns="http://www.w3.org/2000/svg" viewBox="0 0 96.49 76.58"><defs><style>.cls-1{fill:#726758;}.cls-2{fill:#96a4ad;}.cls-2,.cls-3{stroke:#726658;}.cls-2,.cls-3,.cls-4{stroke-miterlimit:10;}.cls-3,.cls-4{fill:#aebec7;}.cls-4{stroke:#231f20;stroke-width:0.69px;}</style></defs><title>zaodia_aries</title><circle class="cls-1" cx="50.69" cy="39.43" r="37.15"/><path class="cls-2" d="M23.19,47.56A26.56,26.56,0,0,0,23.37,58a11.06,11.06,0,0,0,2.27,5.12,9.82,9.82,0,0,0,3.47,2.57,12,12,0,0,1-4.89,1.09,12.89,12.89,0,0,1-8.91-3.85,14.22,14.22,0,0,1-3.88-7" transform="translate(-1.97 -12.82)"/><path class="cls-3" d="M2.94,56.14a15.18,15.18,0,0,0,6,3.91c6.37,2.18,13.65-.55,13.92-2.78.1-.79-.21-.79-.1-2.1.26-3,2.66-5.22,4.28-6.72A14.17,14.17,0,0,1,28.83,47a27.48,27.48,0,0,1,7-3.4c7.27-2.37,12.37-8.24,12.68-8.6a23.21,23.21,0,0,0,4.14-7.18c1.24-3.48,1.85-8,.83-8.38-.45-.18-.9.58-2.53,1.91-2.55,2.08-5.88,3.94-6.37,3.4s.78-2.23,2-3.52c2.68-2.85,5.35-2.81,5.42-3.81.1-1.56-6.12-4.6-12.81-4-7.62.67-12.67,5.7-14.35,7.37A33.77,33.77,0,0,0,17.2,34c0,.1-.05.2-.05.2a40.26,40.26,0,0,0-1.25,8.62,23.07,23.07,0,0,1-1,5.88C14.1,50.68,11.77,54.16,2.94,56.14Z" transform="translate(-1.97 -12.82)"/><path class="cls-3" d="M30,40.7a19.52,19.52,0,0,1,5.63,5.07,8.07,8.07,0,0,1,1.73,3.69,7.14,7.14,0,0,1-.25,3.14A8.67,8.67,0,0,0,40,50.44a9.41,9.41,0,0,0,2.15-6.74,10.25,10.25,0,0,0-2-5.47" transform="translate(-1.97 -12.82)"/><circle class="cls-1" cx="35.93" cy="7.53" r="0.95"/><path class="cls-4" d="M22.21,66.75" transform="translate(-1.97 -12.82)"/><path class="cls-2" d="M80.73,44a21.53,21.53,0,0,0-3.38-7.65,8.81,8.81,0,0,0-3.28-3.08,7.74,7.74,0,0,0-3.37-.82A9.47,9.47,0,0,1,74,30.12a10.48,10.48,0,0,1,7.81.07,11.42,11.42,0,0,1,5,4" transform="translate(-1.97 -12.82)"/><path class="cls-3" d="M97.45,31.75a15.09,15.09,0,0,0-7.06-1.28c-6.71.47-12.36,5.82-11.74,8,.22.76.49.64.9,1.89.93,2.85-.41,5.84-1.32,7.86a15.72,15.72,0,0,1-1.07,2c-1.22,1.86-2.72,2.88-5.12,5.85a43.29,43.29,0,0,0-6,10,27.91,27.91,0,0,0-2.63,10.69c-.1,4,.79,8.39,1.74,8.43.44,0,.6-.88,1.59-2.74,1.51-2.86,3.86-5.92,4.55-5.61.48.21.19,2-.13,3.14C70,84.12,67,85.68,67.33,86.5c.48,1,6.37.35,12.1-2.75A30.67,30.67,0,0,0,92.5,65.15a22.81,22.81,0,0,0,.4-7.49,2.06,2.06,0,0,1,0-.21A40.94,40.94,0,0,0,90.68,49a23.65,23.65,0,0,1-1.34-5.82C89.29,41.11,90.08,37,97.45,31.75Z" transform="translate(-1.97 -12.82)"/><path class="cls-3" d="M78.55,56.47A19.28,19.28,0,0,1,71.4,54a8,8,0,0,1-3-2.73,7.09,7.09,0,0,1-1-3,8.64,8.64,0,0,0-1.86,3.13,9.44,9.44,0,0,0,.64,7,10.27,10.27,0,0,0,4,4.26" transform="translate(-1.97 -12.82)"/><circle class="cls-1" cx="77.18" cy="65.49" r="0.95"/><path class="cls-4" d="M75.57,29.45" transform="translate(-1.97 -12.82)"/></svg>