<?xml version="1.0" encoding="utf-8"?>
<!-- Generator: Adobe Illustrator 23.1.0, SVG Export Plug-In . SVG Version: 6.00 Build 0)  -->
<svg version="1.1" xmlns="http://www.w3.org/2000/svg" xmlns:xlink="http://www.w3.org/1999/xlink" x="0px" y="0px"
	 viewBox="0 0 96.5 76.6" style="enable-background:new 0 0 96.5 76.6;" xml:space="preserve">
<style type="text/css">
	.st0{display:none;}
	.st1{fill:#FFFFFF;stroke:#231F20;stroke-width:0.3734;stroke-miterlimit:10;}
	.st2{fill:#EFEFF0;stroke:#231F20;stroke-width:0.3936;stroke-miterlimit:10;}
	.st3{fill:#FFFFFF;stroke:#231F20;stroke-width:0.3936;stroke-miterlimit:10;}
	.st4{fill:none;stroke:#231F20;stroke-width:0.3936;stroke-miterlimit:10;}
	.st5{fill:#D1D3D4;stroke:#231F20;stroke-width:0.3936;stroke-miterlimit:10;}
	.st6{display:inline;fill:#726758;}
	.st7{display:inline;fill:#94A3AA;stroke:#726658;stroke-miterlimit:10;}
	.st8{display:inline;fill:#96A4AD;stroke:#726658;stroke-miterlimit:10;}
	.st9{display:inline;fill:#AEBEC7;stroke:#726658;stroke-miterlimit:10;}
	.st10{display:inline;fill:#AEBEC7;stroke:#231F20;stroke-width:0.69;stroke-miterlimit:10;}
</style>
<g id="Warstwa_2">
	<g id="l2gSCE_1_" class="st0">
		
			<image style="display:inline;overflow:visible;" width="225" height="225" id="l2gSCE_2_" xlink:href="8A956A26170A7276.jpg"  transform="matrix(0.3072 0 0 0.3072 12.896 4.7977)">
		</image>
	</g>
	<path class="st1" d="M41,43.1c0.6,9.3-0.1,16.3-0.9,18.8c-0.7,2.3-1.4,3.8-1.4,3.8c-0.9,2.1-1.3,2.3-1.3,2.8
		c0,2.3,5.6,4.9,11.1,5.1c6,0.2,12-2.5,12-4.8c0-0.8-0.8-1.1-1.9-3.6c0,0-0.6-1.2-1.1-3.1c-0.7-2.6-1.5-9.9-1.5-19.5"/>
	<path class="st2" d="M55.9,21.4c3.7-1.7,7-4.1,7.4-7.2c0.5-5.3-8.2-9.9-7.4-11.1c0.5-0.8,5,0.4,8.3,3.2c1,0.9,6.3,5.4,5.3,11.9
		c-0.8,4.9-4.8,9.1-10.2,10.2"/>
	<path class="st2" d="M41.4,21.4c-3.7-1.7-7-4.1-7.4-7.2C33.6,8.8,42.2,4.3,41.5,3c-0.5-0.8-5,0.4-8.3,3.2c-1,0.9-6.3,5.4-5.3,11.9
		c0.8,4.9,4.8,9.1,10.2,10.2"/>
	<path class="st3" d="M61.9,24.8c8.6,7.3,10.6,7.3,11.7,7.6c0.6,0.2,1.9-0.8,2.1-0.8c0.3,0,0.6,1.7,0,2.7c-0.7,0.9-2.2,0.6-4.5,0.3
		c-3.2-0.5-3.1-1.3-5.7-1.5c-1.4-0.1-2.6,0.1-3.3,0.2"/>
	<path class="st3" d="M34.6,24.8C26,32.1,24,32.1,22.9,32.4c-0.6,0.2-1.9-0.8-2.1-0.8c-0.3,0-0.6,1.7,0,2.7c0.7,0.9,2.2,0.6,4.5,0.3
		c3.2-0.5,3.1-1.3,5.7-1.5c1.4-0.1,2.6,0.1,3.3,0.2"/>
	<path class="st3" d="M48.8,18.1c-2.1-0.1-5.8-0.2-9.6,2.1c-1,0.6-3.2,1.9-4.5,4.3c-1.8,3.3-1.6,7,0.7,12.5
		c5.3,13.1,6.6,19.8,10,22.6c0.7,0.6,3.3,1.1,6,0.2c3.3-1.1,3.2-4.2,10-24c2.2-6.5,1.4-10.1-0.6-12.8c-1.2-1.5-2.8-2.5-3.6-2.9
		C53.8,18.2,50.6,18.1,48.8,18.1z"/>
	<path class="st3" d="M34.6,35c0-1.7,0.2-2,1.4-2.5c1-0.4,2.6-0.2,2.9,0c2.3,0.9,2.5,3.9,2.9,5.8c1.6,6.1-0.4,11.6-0.4,11.6
		c-0.5,1.4-1.1,1.9-0.9,3c0.4,3.1,5.6,5.5,7.1,4.3c1-0.7,0.6-2.9,0.7-2.9c0.2,0-0.1,2,0.8,2.8c1.6,1.3,7.2-1.1,7.8-4.3
		c0.3-1.8-1.3-2.3-2.4-5.7c-1.3-3.9-0.5-7.2,0-9.4c0.5-2.4,1-4.5,2.8-5.3c1-0.5,2.3-0.6,3.3-0.3c0.7,0.1,0.9,0.4,1.1,0.6
		c0.6,0.7,0.3,1.7,0.2,1.9"/>
	<path class="st4" d="M56.8,35.9c0.1,0.1,1,0.6,2,0.4c1.3-0.3,1.7-1.6,1.8-1.7"/>
	<path class="st5" d="M45.2,59.5c0,1,0.4,1.9,1.3,3.4c1,1.7,0.7,1.6,1.1,3.2c0.2,1-1.3,4.8-0.9,5c0.6,0.4,3.4-1.7,4.9-6
		c0.7-2.1,1.7-6.3,1.1-5.9c-0.5,0.3-1.8,0.7-3.8,0.9C47.4,60.3,46,59.9,45.2,59.5z"/>
	<path class="st4" d="M40,36.3c-0.1,0.1-1,0.6-2,0.4c-1.3-0.3-1.7-1.6-1.8-1.7"/>
</g>
<g id="Warstwa_3" class="st0">
</g>
<g id="Warstwa_1" class="st0">
	<title>zaodia_aries</title>
	<circle class="st6" cx="50.7" cy="39.4" r="37.2"/>
	<path class="st7" d="M72.9,58.2c4.1,0.1,8.1,1.1,11.8,2.7c2.1,0.8,3.9,2.1,5.3,3.8c1,1.4,1.7,2.9,2.1,4.6c1.2-1.6,2-3.4,2.4-5.3
		c0.7-3.9-0.1-7.8-2.2-11.1c-1.7-2.7-4.2-4.8-7-6.1"/>
	<path class="st7" d="M31.6,12.1c-4.1,0.3-8.2-0.3-12-1.6c-2.1-0.6-4.1-1.7-5.6-3.3c-1.2-1.2-2-2.7-2.5-4.4c-1,1.7-1.6,3.5-1.8,5.5
		c-0.4,3.9,0.8,7.8,3.3,10.8c2,2.5,4.6,4.4,7.6,5.4"/>
	<path class="st8" d="M21.2,34.7c-0.6,3.5-0.6,7,0.2,10.4c0.3,1.9,1.1,3.6,2.3,5.1c1,1.1,2.1,2,3.5,2.6c-1.5,0.7-3.2,1.1-4.9,1.1
		c-3.4-0.1-6.6-1.5-8.9-3.8c-1.9-1.9-3.3-4.3-3.9-7"/>
	<path class="st9" d="M1,43.3c1.7,1.8,3.7,3.1,6,3.9c6.4,2.2,13.7-0.5,13.9-2.8c0.1-0.8-0.2-0.8-0.1-2.1c0.3-3,2.7-5.2,4.3-6.7
		c0.6-0.5,1.2-1,1.8-1.5c2.2-1.5,4.5-2.6,7-3.4c7.3-2.4,12.4-8.2,12.7-8.6c1.8-2.1,3.2-4.6,4.1-7.2c1.2-3.5,1.8-8,0.8-8.4
		C51,6.3,50.6,7.1,49,8.4c-2.5,2.1-5.9,3.9-6.4,3.4s0.8-2.2,2-3.5C47.3,5.6,50,5.6,50,4.6c0.1-1.6-6.1-4.6-12.8-4
		C29.6,1.3,24.6,6.3,22.9,8c-3.5,3.8-6.1,8.3-7.6,13.2c0,0.1,0,0.2,0,0.2c-0.7,2.8-1.1,5.7-1.2,8.6c-0.1,2-0.4,4-1,5.9
		C12.1,37.9,9.8,41.3,1,43.3z"/>
	<path class="st9" d="M28,27.9c2.2,1.3,4.1,3,5.6,5.1c0.9,1.1,1.5,2.3,1.7,3.7c0.2,1.1,0.1,2.1-0.2,3.1c1.1-0.5,2.1-1.2,2.9-2.2
		c1.6-1.9,2.3-4.3,2.2-6.7c-0.1-2-0.8-3.9-2-5.5"/>
	<circle class="st6" cx="35.9" cy="7.5" r="1"/>
	<path class="st10" d="M20.2,53.9"/>
	<path class="st8" d="M78.8,31.2c-0.6-2.7-1.8-5.3-3.4-7.7c-0.8-1.3-1.9-2.4-3.3-3.1c-1-0.5-2.2-0.8-3.4-0.8c0.9-1,2-1.8,3.3-2.3
		c2.5-1,5.3-1,7.8,0.1c2,0.8,3.7,2.2,5,4"/>
	<path class="st9" d="M95.5,18.9c-2.2-1-4.6-1.4-7.1-1.3c-6.7,0.5-12.4,5.8-11.7,8c0.2,0.8,0.5,0.6,0.9,1.9c0.9,2.8-0.4,5.8-1.3,7.9
		c-0.3,0.7-0.7,1.4-1.1,2c-1.2,1.9-2.7,2.9-5.1,5.8c-2.4,3-4.5,6.4-6,10c-1.6,3.4-2.5,7-2.6,10.7c-0.1,4,0.8,8.4,1.7,8.4
		c0.4,0,0.6-0.9,1.6-2.7c1.5-2.9,3.9-5.9,4.6-5.6c0.5,0.2,0.2,2-0.1,3.1c-1.2,4.1-4.2,5.7-3.8,6.5c0.5,1,6.4,0.3,12.1-2.8
		c6.6-4.3,11.3-11,13.1-18.6c0.5-2.5,0.7-5,0.4-7.5c0-0.1,0-0.1,0-0.2c-0.4-2.9-1.2-5.7-2.2-8.5c-0.7-1.9-1.1-3.8-1.3-5.8
		C87.3,28.3,88.1,24.2,95.5,18.9z"/>
	<path class="st9" d="M76.6,43.7c-2.5-0.3-5-1.2-7.2-2.5c-1.2-0.6-2.3-1.6-3-2.7c-0.6-0.9-0.9-1.9-1-3c-0.8,0.9-1.5,2-1.9,3.1
		c-0.7,2.3-0.5,4.8,0.6,7c0.9,1.8,2.3,3.3,4,4.3"/>
	<circle class="st6" cx="77.2" cy="65.5" r="0.9"/>
	<path class="st10" d="M73.6,16.6"/>
</g>
</svg>
